Coordinates
version=1
nRows=23
nColumns=38
inDegrees=no

Units are S.I. units (second, meters, Newtons, ...)
If the header above contains a line with 'inDegrees', this indicates whether rotational values are in degrees (yes) or radians (no).

endheader
time	pelvis_tilt	pelvis_list	pelvis_rotation	pelvis_tx	pelvis_ty	pelvis_tz	hip_flexion_r	hip_adduction_r	hip_rotation_r	knee_angle_r	ankle_angle_r	subtalar_angle_r	mtp_angle_r	hip_flexion_l	hip_adduction_l	hip_rotation_l	knee_angle_l	ankle_angle_l	subtalar_angle_l	mtp_angle_l	lumbar_extension	lumbar_bending	lumbar_rotation	arm_flex_r	arm_add_r	arm_rot_r	elbow_flex_r	pro_sup_r	wrist_flex_r	wrist_dev_r	arm_flex_l	arm_add_l	arm_rot_l	elbow_flex_l	pro_sup_l	wrist_flex_l	wrist_dev_l
1.51	-0.0403281	-0.020309	-0.0874821	0.92378	0.982416	-0.312162	-0.299994	-0.0369032	-0.113087	-0.666969	-0.447338	-0.0365291	9.23335e-05	0.468107	0.0170722	-0.122012	-0.19596	0.0239608	-0.0492981	0.000189407	-0.212065	-0.0325303	0.260207	-0.181553	-0.595865	-0.0375874	2.15307	1.50449	0.0392753	-0.0202569	-0.76049	-0.247205	-0.235351	2.12992	2.09405	-0.00485762	-0.00579529
1.52	-0.0296813	-0.0207681	-0.0876988	0.924704	0.977671	-0.313189	-0.280376	-0.0489557	-0.113545	-0.768064	-0.425055	-0.0365291	9.23335e-05	0.455708	0.0192268	-0.125768	-0.232207	0.0179835	-0.0492981	0.000189407	-0.221193	-0.0324542	0.248757	-0.196112	-0.594329	-0.0405803	2.1463	1.51568	0.0392753	-0.0202569	-0.750072	-0.24693	-0.24037	2.1381	2.09111	-0.00485762	-0.00579529
1.53	-0.0174982	-0.0166783	-0.0846507	0.925138	0.972244	-0.31455	-0.257252	-0.0653525	-0.116471	-0.874799	-0.402002	-0.0365291	9.23335e-05	0.448122	0.0267628	-0.128887	-0.287794	0.0143665	-0.0492981	0.000189407	-0.232917	-0.0367362	0.231556	-0.210919	-0.590429	-0.0433043	2.13505	1.52986	0.0392753	-0.0202569	-0.735175	-0.249892	-0.244643	2.14307	2.08803	-0.00485762	-0.00579529
1.54	-0.00416381	-0.00819819	-0.0782531	0.925052	0.966487	-0.316206	-0.230744	-0.0851993	-0.121482	-0.984473	-0.379845	-0.0365291	9.23335e-05	0.444267	0.0397975	-0.130089	-0.357937	0.0158681	-0.0492981	0.000189407	-0.247096	-0.0451166	0.208842	-0.226014	-0.583957	-0.0460439	2.11905	1.54679	0.0392753	-0.0202569	-0.715305	-0.256358	-0.247567	2.14388	2.08602	-0.00485762	-0.00579529
1.55	0.00988904	0.00401507	-0.0689486	0.924417	0.960825	-0.318023	-0.200836	-0.106899	-0.127206	-1.09442	-0.359354	-0.0365291	9.23335e-05	0.442432	0.0577236	-0.128606	-0.437053	0.0249994	-0.0492981	0.000189407	-0.263456	-0.0568941	0.181563	-0.241566	-0.574831	-0.0491053	2.09814	1.56588	0.0392753	-0.0202569	-0.690007	-0.266379	-0.248376	2.13967	2.0864	-0.00485762	-0.00579529
1.56	0.0241747	0.0188578	-0.057674	0.923206	0.955538	-0.319812	-0.167361	-0.128286	-0.131541	-1.20214	-0.340534	-0.0365291	9.23335e-05	0.44051	0.0792597	-0.124329	-0.519227	0.0433533	-0.0492981	0.000189407	-0.281537	-0.0709989	0.151306	-0.257857	-0.563129	-0.0527349	2.07228	1.58614	0.0392753	-0.0202569	-0.658982	-0.279768	-0.246257	2.12989	2.09044	-0.00485762	-0.00579529
1.57	0.0381356	0.034914	-0.0457151	0.921433	0.950695	-0.321409	-0.130013	-0.146938	-0.132177	-1.30536	-0.322865	-0.0365291	9.23335e-05	0.436364	0.10262	-0.117739	-0.598811	0.0712098	-0.0492981	0.000189407	-0.300648	-0.0861174	0.120067	-0.275186	-0.549111	-0.0570254	2.04167	1.60629	0.0392753	-0.0202569	-0.6222	-0.29608	-0.240508	2.11448	2.09917	-0.00485762	-0.00579529
1.58	0.0511876	0.0506538	-0.0344641	0.919164	0.94629	-0.322695	-0.0884326	-0.160572	-0.127217	-1.40208	-0.305603	-0.0365291	9.23335e-05	0.428217	0.125772	-0.109656	-0.671054	0.107547	-0.0492981	0.000189407	-0.31991	-0.10084	0.089896	-0.293764	-0.533226	-0.0618459	2.00678	1.62486	0.0392753	-0.0202569	-0.579998	-0.314626	-0.230722	2.09403	2.11319	-0.00485762	-0.00579529
1.59	0.0627946	0.0645988	-0.0251131	0.916497	0.942377	-0.323579	-0.0423468	-0.167476	-0.115723	-1.49059	-0.288049	-0.0365291	9.23335e-05	0.414921	0.146757	-0.100919	-0.732553	0.150368	-0.0492981	0.000189407	-0.338344	-0.113827	0.0625002	-0.313635	-0.516068	-0.0668439	1.96839	1.64037	0.0392753	-0.0202569	-0.533119	-0.334526	-0.216911	2.06985	2.13247	-0.00485762	-0.00579529
1.6	0.0725095	0.0755243	-0.0183748	0.913551	0.939073	-0.324028	0.0082746	-0.166826	-0.0980432	-1.56947	-0.269746	-0.0365291	9.23335e-05	0.396022	0.163983	-0.0921064	-0.781376	0.197148	-0.0492981	0.000189407	-0.355025	-0.123942	0.0389119	-0.334666	-0.498301	-0.0715335	1.92764	1.65149	0.0392753	-0.0202569	-0.482676	-0.354814	-0.19953	2.0438	2.15633	-0.00485762	-0.00579529
1.61	0.080018	0.0826178	-0.014318	0.910454	0.936479	-0.324121	0.0631104	-0.158828	-0.075816	-1.63751	-0.250544	-0.0365291	9.23335e-05	0.371635	0.176415	-0.0833861	-0.816858	0.245218	-0.0492981	0.000189407	-0.369196	-0.130328	0.019323	-0.356635	-0.480559	-0.0754426	1.88597	1.65731	0.0392753	-0.0202569	-0.430053	-0.374566	-0.179388	2.01815	2.18335	-0.00485762	-0.00579529
1.62	0.0851772	0.0855626	-0.0123701	0.907331	0.934641	-0.324011	0.121461	-0.14465	-0.0516657	-1.69375	-0.230579	-0.0365291	9.23335e-05	0.342227	0.183628	-0.0745186	-0.839211	0.292024	-0.0492981	0.000189407	-0.380351	-0.13244	0.00313157	-0.379334	-0.463352	-0.0782661	1.84505	1.65746	0.0392753	-0.0202569	-0.376771	-0.393018	-0.157474	1.99518	2.21147	-0.00485762	-0.00579529
1.63	0.087961	0.0844753	-0.0114943	0.904301	0.933582	-0.323851	0.182291	-0.126164	-0.0286754	-1.73746	-0.210177	-0.0365291	9.23335e-05	0.308401	0.185743	-0.0650025	-0.849135	0.335269	-0.0492981	0.000189407	-0.388251	-0.130052	-0.0108226	-0.402681	-0.447017	-0.0799779	1.80668	1.65227	0.0392753	-0.0202569	-0.324336	-0.409651	-0.134766	1.97689	2.23808	-0.00485762	-0.00579529
1.64	0.08843	0.0797548	-0.0104672	0.901471	0.933308	-0.323765	0.244369	-0.105543	-0.00977859	-1.76815	-0.189746	-0.0365291	9.23335e-05	0.27078	0.183247	-0.0543076	-0.847538	0.372968	-0.0492981	0.000189407	-0.392858	-0.123222	-0.0238981	-0.426761	-0.431711	-0.0808688	1.77258	1.64272	0.0392753	-0.0202569	-0.274116	-0.424203	-0.112077	1.96478	2.26036	-0.00485762	-0.00579529
1.65	0.0867264	0.0719662	-0.00818567	0.898935	0.933797	-0.323844	0.30641	-0.0848298	0.00273619	-1.78559	-0.169706	-0.0365291	9.23335e-05	0.229987	0.176761	-0.0421088	-0.835392	0.403408	-0.0492981	0.000189407	-0.39424	-0.112201	-0.0373044	-0.451795	-0.417446	-0.0814868	1.74419	1.6304	0.0392753	-0.0202569	-0.227258	-0.436626	-0.0899664	1.95971	2.27541	-0.00485762	-0.00579529
1.66	0.0830269	0.0616875	-0.00389856	0.896772	0.935007	-0.324138	0.367201	-0.065582	0.00753179	-1.78977	-0.150464	-0.0365291	9.23335e-05	0.18666	0.166844	-0.0284792	-0.8137	0.425067	-0.0492981	0.000189407	-0.392506	-0.0973692	-0.0518478	-0.478037	-0.40414	-0.0824884	1.72251	1.61713	0.0392753	-0.0202569	-0.184659	-0.447013	-0.0687484	1.96188	2.28073	-0.00485762	-0.00579529
1.67	0.0775113	0.0494009	0.00266814	0.895031	0.936893	-0.32465	0.425664	-0.0486842	0.0042945	-1.78082	-0.13241	-0.0365291	9.23335e-05	0.141471	0.153896	-0.0139817	-0.78351	0.436523	-0.0492981	0.000189407	-0.387794	-0.0791876	-0.0678296	-0.50564	-0.391676	-0.0844496	1.70793	1.60455	0.0392753	-0.0202569	-0.146966	-0.455505	-0.048557	1.97096	2.27479	-0.00485762	-0.00579529
1.68	0.070377	0.0354618	0.0113106	0.893731	0.939408	-0.325339	0.480847	-0.0343334	-0.0063881	-1.75896	-0.115908	-0.0365291	9.23335e-05	0.0951044	0.138143	0.000368159	-0.745938	0.43643	-0.0492981	0.000189407	-0.380306	-0.0581769	-0.0850764	-0.534552	-0.379928	-0.0877213	1.70021	1.59383	0.0392753	-0.0202569	-0.114581	-0.462247	-0.0294374	1.98621	2.25748	-0.00485762	-0.00579529
1.69	0.0618742	0.0201338	0.0214408	0.892868	0.942503	-0.326132	0.53188	-0.0221672	-0.0232563	-1.72444	-0.101249	-0.0365291	9.23335e-05	0.0482033	0.119725	0.0132566	-0.70217	0.423572	-0.0492981	0.000189407	-0.370361	-0.0349238	-0.103056	-0.564466	-0.368762	-0.0923718	1.69853	1.58548	0.0392753	-0.0202569	-0.0876721	-0.467363	-0.0114268	2.00656	2.2303	-0.00485762	-0.00579529
1.7	0.0523287	0.00365894	0.0322314	0.892416	0.946128	-0.326942	0.57793	-0.0114664	-0.0446257	-1.67749	-0.0885965	-0.0365291	9.23335e-05	0.00132701	0.098807	0.0233015	-0.65347	0.397016	-0.0492981	0.000189407	-0.358424	-0.0100982	-0.121032	-0.594857	-0.358028	-0.0982183	1.70163	1.57948	0.0392753	-0.0202569	-0.0661894	-0.470964	0.00539177	2.03081	2.19612	-0.00485762	-0.00579529
1.71	0.0421237	-0.013667	0.0427758	0.892343	0.950231	-0.327681	0.618208	-0.00136546	-0.0685964	-1.61832	-0.0779121	-0.0365291	9.23335e-05	-0.0450417	0.0757028	0.0293213	-0.601208	0.356322	-0.0492981	0.000189407	-0.345067	0.0155384	-0.138214	-0.625064	-0.347562	-0.104908	1.70801	1.57532	0.0392753	-0.0202569	-0.0498968	-0.47316	0.0208778	2.0577	2.15856	-0.00485762	-0.00579529
1.72	0.03164	-0.0314308	0.0522337	0.89261	0.954739	-0.328256	0.652019	0.00894754	-0.0932073	-1.5472	-0.0689086	-0.0365291	9.23335e-05	-0.0904365	0.0509665	0.0305748	-0.5469	0.301768	-0.0492981	0.000189407	-0.330898	0.0411305	-0.153901	-0.654398	-0.337193	-0.112013	1.71618	1.57223	0.0392753	-0.0202569	-0.0384216	-0.474068	0.0348574	2.08599	2.12131	-0.00485762	-0.00579529
1.73	0.0211881	-0.049062	0.0599454	0.893171	0.959552	-0.328595	0.67885	0.0200576	-0.116553	-1.46456	-0.0610416	-0.0365291	9.23335e-05	-0.134326	0.0254385	0.0269292	-0.492263	0.234517	-0.0492981	0.000189407	-0.316463	0.0657348	-0.167587	-0.682229	-0.326772	-0.119119	1.72484	1.56939	0.0392753	-0.0202569	-0.0313059	-0.473827	0.0471724	2.11458	2.08754	-0.00485762	-0.00579529
